<?xml version="1.0" standalone="no"?>
<!DOCTYPE svg PUBLIC "-//W3C//DTD SVG 20010904//EN"
 "http://www.w3.org/TR/2001/REC-SVG-20010904/DTD/svg10.dtd">
<svg version="1.0" xmlns="http://www.w3.org/2000/svg"
 width="670.000000pt" height="544.000000pt" viewBox="0 0 670.000000 544.000000"
 preserveAspectRatio="xMidYMid meet">

<g transform="translate(0.000000,544.000000) scale(0.100000,-0.100000)"
fill="#000000" stroke="none">
<path d="M3837 5424 c-57 -18 -128 -84 -152 -140 -18 -44 -20 -131 -3 -187 13
-44 107 -147 133 -147 8 0 15 -9 15 -20 0 -19 -7 -20 -90 -20 -71 0 -92 -3
-96 -15 -5 -13 -60 -15 -413 -15 l-406 1 -25 34 c-53 74 -180 137 -307 151
-36 5 -80 19 -118 40 -142 76 -379 87 -550 24 -129 -48 -280 -259 -321 -450
-9 -43 -35 -113 -60 -162 -25 -48 -56 -131 -70 -185 -31 -120 -33 -256 -7
-467 19 -159 24 -593 7 -635 -8 -18 -42 -37 -154 -83 -154 -64 -209 -96 -259
-153 -37 -43 -225 -322 -436 -650 -298 -461 -406 -639 -422 -694 -43 -148 47
-325 193 -381 54 -21 80 -23 317 -28 l257 -5 0 -63 0 -64 -325 0 -326 0 3 -71
3 -70 320 1 320 1 -2 -128 c-2 -71 -4 -264 -5 -430 l-3 -301 40 -6 c687 -102
1337 -127 2025 -81 203 14 459 38 543 51 l37 6 0 121 c0 67 3 267 7 444 l6
323 212 0 212 0 24 -26 c41 -44 105 -83 159 -97 83 -22 167 -7 325 58 l138 56
206 -6 c745 -20 1047 -36 1309 -70 88 -11 252 -46 307 -65 32 -11 62 -20 67
-20 4 0 8 70 8 155 l0 155 -792 0 -793 0 48 30 47 30 -6 58 c-14 133 -56 249
-115 317 -33 37 -117 85 -151 85 -10 0 -77 -16 -149 -36 -72 -19 -137 -33
-143 -31 -6 3 -22 35 -34 73 -13 38 -26 75 -29 82 -4 9 55 12 276 12 264 0
286 1 382 25 91 22 111 24 169 14 36 -5 78 -17 94 -25 24 -11 95 -14 386 -14
355 0 357 0 391 23 19 12 40 34 46 48 16 32 19 2978 4 3007 -5 9 -21 28 -36
42 l-27 25 -929 3 c-814 2 -929 4 -929 17 0 12 -18 15 -95 15 -112 0 -121 11
-47 57 84 52 122 121 123 225 2 164 -171 284 -334 232z m83 -169 c86 -44 75
-183 -17 -221 -48 -21 -94 -11 -132 27 -55 55 -50 132 11 184 35 29 93 33 138
10z m-1034 -712 c12 -27 14 -53 9 -100 -6 -54 -3 -70 16 -111 33 -66 35 -142
10 -382 -26 -242 -38 -323 -55 -346 -12 -15 -15 -15 -57 3 -51 23 -158 133
-191 196 -17 33 -22 65 -26 150 l-5 107 29 0 c59 0 109 22 150 65 58 60 77
123 72 234 -4 77 -8 94 -41 154 l-37 67 56 0 c54 0 55 -1 70 -37z m-206 -48
c46 -24 73 -86 68 -157 -5 -69 -30 -109 -78 -122 -97 -28 -176 124 -121 233
30 57 77 74 131 46z m2138 -427 l2 -348 -28 0 c-16 0 -56 -14 -90 -31 -61 -30
-102 -32 -102 -6 0 7 -18 130 -39 273 -41 284 -49 306 -114 342 -50 27 -172
23 -220 -7 -74 -45 -83 -76 -107 -356 -12 -137 -23 -252 -26 -256 -2 -4 -28
-12 -56 -19 -97 -22 -128 -57 -137 -153 -5 -53 -9 -62 -26 -62 -20 0 -20 8
-23 475 -1 261 0 481 3 488 3 10 105 12 482 10 l478 -3 3 -347z m990 -136 c1
-281 -2 -481 -7 -478 -5 3 -12 34 -15 69 -13 117 -53 154 -208 189 -97 21 -98
22 -98 51 l0 30 -45 -42 c-39 -36 -51 -41 -90 -41 -41 0 -51 5 -95 46 l-50 47
0 -35 0 -36 -92 -17 c-51 -10 -102 -21 -113 -25 -11 -4 -36 0 -60 11 -22 10
-52 19 -67 19 l-28 0 0 343 c0 189 3 347 7 350 3 4 221 6 482 5 l476 -3 3
-483z m-1457 174 c18 -16 66 -45 107 -65 67 -33 72 -38 67 -61 -4 -14 -13 -32
-21 -41 -8 -8 -14 -22 -14 -29 0 -19 -67 -117 -93 -135 -12 -8 -39 -15 -61
-15 -33 0 -46 7 -80 43 -23 23 -46 54 -52 67 -6 14 -23 50 -38 80 -28 59 -32
85 -16 95 6 4 21 28 35 54 13 27 36 62 50 80 l27 31 28 -38 c15 -21 42 -50 61
-66z m-51 -361 c29 -19 72 -40 96 -46 50 -13 54 -21 22 -43 -46 -33 -140 -32
-173 0 -16 16 -23 140 -7 130 5 -3 33 -21 62 -41z m-1699 -93 c21 -18 22 -27
23 -137 l1 -118 -54 -18 c-105 -36 -229 -52 -408 -53 -94 -1 -174 2 -178 6
-13 13 50 111 108 168 31 32 83 71 115 88 135 72 341 105 393 64z m2279 -152
c16 -16 20 -33 20 -85 l0 -65 -92 0 c-119 0 -128 7 -128 102 l0 68 90 0 c77 0
93 -3 110 -20z m110 -65 c0 -43 -5 -77 -11 -81 -6 -3 -23 2 -37 13 -21 16 -28
30 -30 65 -3 42 0 47 30 66 17 11 36 18 40 16 4 -3 8 -38 8 -79z m-440 -59
c20 -97 91 -177 187 -212 21 -7 48 -13 61 -14 l22 0 -1 -332 c-1 -231 -4 -321
-10 -293 -22 94 -30 112 -58 139 -23 22 -54 35 -123 52 -51 13 -101 24 -110
24 -13 0 -18 8 -18 32 l0 32 -32 -31 c-44 -41 -70 -53 -113 -53 -29 0 -45 9
-85 46 l-50 47 0 -34 0 -34 -116 -23 c-64 -13 -117 -22 -119 -20 -1 2 -18 44
-38 95 -20 51 -50 121 -67 156 l-30 64 0 206 0 207 344 0 345 0 11 -54z m1258
-433 l-3 -488 -25 0 c-23 0 -25 4 -30 60 -3 33 -12 70 -20 83 -18 28 -114 102
-132 102 -7 0 -36 10 -65 22 -65 26 -85 67 -59 117 40 77 59 259 35 343 -19
72 -103 128 -190 128 -87 0 -167 -50 -190 -118 -29 -84 -8 -265 42 -350 17
-30 18 -35 4 -63 -9 -16 -22 -29 -30 -29 -7 0 -20 -6 -27 -13 -7 -8 -30 -20
-51 -26 -21 -7 -50 -23 -65 -35 -15 -12 -39 -30 -54 -39 -41 -26 -60 -61 -67
-125 -4 -41 -10 -57 -21 -57 -13 0 -15 46 -18 348 -2 326 -1 347 15 347 106 0
229 110 253 226 l11 54 345 0 344 0 -2 -487z m-409 232 c45 -38 66 -105 65
-202 -1 -78 -3 -84 -39 -133 -43 -59 -61 -70 -111 -70 -31 0 -44 7 -80 44 -49
51 -59 90 -52 209 2 58 8 82 28 110 47 69 133 88 189 42z m-4110 -1342 l1 -33
-115 0 c-95 0 -115 2 -108 13 4 8 49 62 98 121 l90 106 17 -87 c9 -49 17 -103
17 -120z m2105 -177 l-7 -64 49 24 c27 13 72 26 99 29 l50 7 68 -136 c37 -75
67 -141 67 -146 0 -16 -300 -12 -330 4 -23 13 -26 12 -56 -22 -18 -21 -36 -33
-40 -29 -5 4 -1 65 8 135 14 114 20 134 55 194 21 37 39 68 41 68 1 0 0 -29
-4 -64z m431 -476 l35 -70 -175 0 -175 0 0 70 0 70 140 0 140 0 35 -70z"/>
<path d="M3795 5218 c-39 -35 -44 -86 -11 -125 15 -17 40 -34 56 -38 33 -7 84
15 100 44 48 90 -68 185 -145 119z m104 -8 c25 -13 47 -68 33 -82 -14 -14 -32
-2 -32 21 0 10 -9 26 -20 36 -33 30 -21 47 19 25z"/>
<path d="M5233 4298 c-11 -13 -25 -38 -31 -56 -6 -19 -23 -47 -37 -64 -21 -25
-25 -40 -25 -94 0 -62 19 -114 41 -114 5 0 9 30 9 68 0 86 16 112 68 112 64
-1 211 -27 227 -40 10 -9 15 -31 15 -76 0 -35 4 -64 9 -64 11 0 41 45 41 63 0
8 9 22 19 31 24 22 18 88 -11 129 -18 26 -18 30 -4 46 26 28 19 41 -22 41 -21
0 -63 9 -95 20 -34 12 -82 20 -120 20 -53 0 -67 -4 -84 -22z"/>
<path d="M4291 3291 c-74 -19 -131 -96 -131 -178 0 -49 12 -49 67 -2 18 16 50
33 71 40 36 10 44 8 133 -34 82 -38 98 -42 114 -31 39 29 -6 148 -71 186 -36
21 -134 31 -183 19z"/>
<path d="M5212 1591 c-52 -23 -149 -98 -139 -107 2 -2 40 7 87 20 l83 23 96
-43 c102 -47 120 -63 95 -88 -19 -20 -34 -20 -121 0 l-70 16 -105 -69 c-58
-37 -114 -73 -124 -80 -15 -9 41 -12 264 -12 l283 -1 -6 45 c-12 101 -99 255
-144 255 -10 0 -42 16 -70 35 -28 19 -54 35 -58 34 -5 -1 -36 -13 -71 -28z"/>
</g>
</svg>
